<svg xmlns="http://www.w3.org/2000/svg" xmlns:xlink="http://www.w3.org/1999/xlink" version="1.1" width="256" height="256" viewBox="0 0 256 256" xml:space="preserve">
<desc>Created with Fabric.js 1.7.22</desc>
<defs>
</defs>
<g transform="translate(128 128) scale(0.72 0.72)" style="">
	<g style="stroke: none; stroke-width: 0; stroke-dasharray: none; stroke-linecap: butt; stroke-linejoin: miter; stroke-miterlimit: 10; fill: none; fill-rule: nonzero; opacity: 1;" transform="translate(-175.05 -175.05000000000004) scale(3.89 3.89)" >
	<circle cx="45" cy="45" r="43" style="stroke: none; stroke-width: 1; stroke-dasharray: none; stroke-linecap: butt; stroke-linejoin: miter; stroke-miterlimit: 10; fill: rgb(237,180,0); fill-rule: nonzero; opacity: 1;" transform="  matrix(1 0 0 1 0 0) "/>
	<path d="M 20.146 35.908 c -0.469 0.869 -0.877 1.8 -1.213 2.784 c -2.457 7.192 -0.112 14.503 5.236 16.33 c 5.349 1.827 11.676 -2.522 14.133 -9.714 c 2.438 -7.136 0.149 -14.389 -5.112 -16.286" style="stroke: none; stroke-width: 1; stroke-dasharray: none; stroke-linecap: butt; stroke-linejoin: miter; stroke-miterlimit: 10; fill: rgb(255,255,255); fill-rule: nonzero; opacity: 1;" transform=" matrix(1 0 0 1 0 0) " stroke-linecap="round" />
	<path d="M 69.854 35.908 c 0.469 0.869 0.877 1.8 1.213 2.784 c 2.457 7.192 0.112 14.503 -5.236 16.33 c -5.349 1.827 -11.676 -2.522 -14.133 -9.714 c -2.438 -7.136 -0.149 -14.389 5.112 -16.286" style="stroke: none; stroke-width: 1; stroke-dasharray: none; stroke-linecap: butt; stroke-linejoin: miter; stroke-miterlimit: 10; fill: rgb(255,255,255); fill-rule: nonzero; opacity: 1;" transform=" matrix(1 0 0 1 0 0) " stroke-linecap="round" />
	<path d="M 45 90 C 20.187 90 0 69.813 0 45 C 0 20.187 20.187 0 45 0 c 24.813 0 45 20.187 45 45 C 90 69.813 69.813 90 45 90 z M 45 4 C 22.393 4 4 22.393 4 45 s 18.393 41 41 41 s 41 -18.393 41 -41 S 67.607 4 45 4 z" style="stroke: none; stroke-width: 1; stroke-dasharray: none; stroke-linecap: butt; stroke-linejoin: miter; stroke-miterlimit: 10; fill: rgb(0,0,0); fill-rule: nonzero; opacity: 1;" transform=" matrix(1 0 0 1 0 0) " stroke-linecap="round" />
	<path d="M 28 72.614 c 1.847 -2.687 4.29 -4.966 7.187 -6.673 c 2.891 -1.696 6.315 -2.747 9.813 -2.756 c 3.498 0.004 6.924 1.055 9.815 2.751 c 2.899 1.707 5.342 3.987 7.185 6.678 c -2.936 -1.436 -5.698 -2.842 -8.521 -3.831 c -2.812 -1.002 -5.643 -1.582 -8.479 -1.6 c -2.836 0.012 -5.669 0.593 -8.481 1.595 C 33.695 69.766 30.933 71.175 28 72.614 z" style="stroke: none; stroke-width: 1; stroke-dasharray: none; stroke-linecap: butt; stroke-linejoin: miter; stroke-miterlimit: 10; fill: rgb(0,0,0); fill-rule: nonzero; opacity: 1;" transform=" matrix(1 0 0 1 0 0) " stroke-linecap="round" />
	<circle cx="30.133" cy="50.003" r="4.633" style="stroke: none; stroke-width: 1; stroke-dasharray: none; stroke-linecap: butt; stroke-linejoin: miter; stroke-miterlimit: 10; fill: rgb(0,0,0); fill-rule: nonzero; opacity: 1;" transform="  matrix(1 0 0 1 0 0) "/>
	<circle cx="59.863" cy="50.003" r="4.633" style="stroke: none; stroke-width: 1; stroke-dasharray: none; stroke-linecap: butt; stroke-linejoin: miter; stroke-miterlimit: 10; fill: rgb(0,0,0); fill-rule: nonzero; opacity: 1;" transform="  matrix(1 0 0 1 0 0) "/>
	<path d="M 45 90 C 20.187 90 0 69.813 0 45 C 0 20.187 20.187 0 45 0 c 24.813 0 45 20.187 45 45 C 90 69.813 69.813 90 45 90 z M 45 4 C 22.393 4 4 22.393 4 45 s 18.393 41 41 41 s 41 -18.393 41 -41 S 67.607 4 45 4 z" style="stroke: none; stroke-width: 1; stroke-dasharray: none; stroke-linecap: butt; stroke-linejoin: miter; stroke-miterlimit: 10; fill: rgb(0,0,0); fill-rule: nonzero; opacity: 1;" transform=" matrix(1 0 0 1 0 0) " stroke-linecap="round" />
	<path d="M 10.424 35.458 c 3.221 -0.367 6.279 -0.669 9.174 -1.343 c 2.892 -0.655 5.589 -1.657 8.017 -3.109 c 2.415 -1.474 4.558 -3.39 6.487 -5.642 c 1.945 -2.246 3.642 -4.808 5.474 -7.484 c -0.262 3.227 -1.251 6.392 -2.898 9.288 c -1.648 2.885 -4.045 5.478 -6.999 7.262 c -2.959 1.775 -6.37 2.684 -9.69 2.794 C 16.66 37.328 13.401 36.727 10.424 35.458 z" style="stroke: none; stroke-width: 1; stroke-dasharray: none; stroke-linecap: butt; stroke-linejoin: miter; stroke-miterlimit: 10; fill: rgb(0,0,0); fill-rule: nonzero; opacity: 1;" transform=" matrix(1 0 0 1 0 0) " stroke-linecap="round" />
	<path d="M 26.717 57.444 c -1.084 0 -2.156 -0.176 -3.194 -0.53 c -6.384 -2.181 -9.292 -10.646 -6.482 -18.869 c 0.366 -1.07 0.818 -2.108 1.345 -3.086 l 3.521 1.897 c -0.423 0.785 -0.787 1.62 -1.082 2.482 c -2.096 6.136 -0.306 12.322 3.99 13.79 c 1.974 0.676 4.237 0.238 6.372 -1.23 c 2.317 -1.593 4.172 -4.163 5.222 -7.237 c 2.071 -6.064 0.323 -12.236 -3.898 -13.758 l 1.356 -3.763 c 6.367 2.296 9.146 10.56 6.327 18.814 c -1.326 3.882 -3.72 7.165 -6.742 9.241 C 31.288 56.683 28.976 57.444 26.717 57.444 z" style="stroke: none; stroke-width: 1; stroke-dasharray: none; stroke-linecap: butt; stroke-linejoin: miter; stroke-miterlimit: 10; fill: rgb(0,0,0); fill-rule: nonzero; opacity: 1;" transform=" matrix(1 0 0 1 0 0) " stroke-linecap="round" />
	<path d="M 79.576 35.458 c -2.977 1.27 -6.236 1.87 -9.566 1.767 c -3.32 -0.11 -6.731 -1.02 -9.69 -2.794 c -2.954 -1.784 -5.351 -4.378 -6.999 -7.262 c -1.647 -2.896 -2.636 -6.061 -2.898 -9.288 c 1.833 2.676 3.529 5.238 5.474 7.484 c 1.929 2.252 4.072 4.168 6.487 5.642 c 2.428 1.452 5.125 2.454 8.017 3.109 C 73.297 34.789 76.355 35.091 79.576 35.458 z" style="stroke: none; stroke-width: 1; stroke-dasharray: none; stroke-linecap: butt; stroke-linejoin: miter; stroke-miterlimit: 10; fill: rgb(0,0,0); fill-rule: nonzero; opacity: 1;" transform=" matrix(1 0 0 1 0 0) " stroke-linecap="round" />
	<path d="M 63.343 57.432 c -5.529 0 -11.179 -4.573 -13.537 -11.477 c -2.819 -8.254 -0.041 -16.518 6.326 -18.814 l 1.357 3.763 c -4.222 1.522 -5.97 7.694 -3.898 13.758 c 2.097 6.137 7.302 9.932 11.594 8.467 c 4.296 -1.468 6.086 -7.654 3.99 -13.791 c -0.294 -0.86 -0.657 -1.694 -1.082 -2.481 l 3.521 -1.898 c 0.528 0.98 0.981 2.019 1.346 3.086 c 2.809 8.224 -0.1 16.688 -6.482 18.869 C 65.453 57.264 64.399 57.432 63.343 57.432 z" style="stroke: none; stroke-width: 1; stroke-dasharray: none; stroke-linecap: butt; stroke-linejoin: miter; stroke-miterlimit: 10; fill: rgb(0,0,0); fill-rule: nonzero; opacity: 1;" transform=" matrix(1 0 0 1 0 0) " stroke-linecap="round" />
</g>
</g>
</svg>